# xmcd
#
# Track frame offsets: 
#        150
#        15935
#        31753
#        47288
#        62320
#        77388
#        91364
#        104574
#        115782
#        129714
#        146946
#        160083
#        183469
#        197757
#        213732
#        232779
#
# Disc length: 3263 seconds
#
# Revision: 0
# Processed by: cddbd v1.5.2PL0 Copyright (c) Steve Scherf et al.
# Submitted via: ExactAudioCopy v0.99pb5
#
DISCID=c70cbd10
DTITLE=Smooth Club Deluxe - Christmas Lounge 2
DYEAR=2011
DGENRE=Christmas
TTITLE0=Another White Christmas
TTITLE1=Do They Know It's Christmas Time
TTITLE2=Winter Moods
TTITLE3=Rockin' Around The Christmas Tree
TTITLE4=Any Candle You Like
TTITLE5=Tears In The Snow
TTITLE6=And The Angels Play
TTITLE7=Jingle Bell Rock
TTITLE8=Guitars In Heaven
TTITLE9=White Angel
TTITLE10=The Wonder Of A Winter Night
TTITLE11=On The Cold Cold Border
TTITLE12=A Starry Starry Night
TTITLE13=Making Love In Holy Nights
TTITLE14=Santa Is A Funny Guy
TTITLE15=Smooth Winter
EXTD=
EXTT0=
EXTT1=
EXTT2=
EXTT3=
EXTT4=
EXTT5=
EXTT6=
EXTT7=
EXTT8=
EXTT9=
EXTT10=
EXTT11=
EXTT12=
EXTT13=
EXTT14=
EXTT15=
PLAYORDER=
